<svg width="106" height="120" viewBox="0 0 106 120" fill="none" xmlns="http://www.w3.org/2000/svg" xmlns:xlink="http://www.w3.org/1999/xlink">
<path d="M90.709,7.031C88.149,7.031 85.748,7.722 83.678,8.923L83.678,3.516C83.678,1.574 82.104,0 80.162,0L23.912,0C21.971,0 20.396,1.574 20.396,3.516L20.396,8.966C18.31,7.739 15.882,7.031 13.291,7.031C5.537,7.031 -0.772,13.34 -0.772,21.094C-0.772,27.008 0.981,32.723 4.297,37.62C9.941,45.958 16.902,48.121 22.662,50.425C25.983,58.696 32.699,65.25 41.077,68.354L38.484,84.844L37.975,84.844C32.159,84.844 27.428,89.575 27.428,95.391L27.428,112.969L23.912,112.969C21.971,112.969 20.397,114.543 20.397,116.484C20.397,118.426 21.971,120 23.912,120L80.162,120C82.104,120 83.678,118.426 83.678,116.484C83.678,114.543 82.104,112.969 80.162,112.969L76.647,112.969L76.647,95.391C76.647,89.575 71.915,84.844 66.1,84.844L65.59,84.844L62.998,68.354C71.388,65.246 78.112,58.677 81.428,50.39C86.869,48.213 94.001,46.043 99.704,37.62C103.019,32.723 104.772,27.008 104.772,21.094C104.772,13.34 98.463,7.031 90.709,7.031ZM20.37,41.936C11.798,38.507 6.26,30.326 6.26,21.094C6.26,17.217 9.414,14.063 13.291,14.063C17.168,14.063 20.322,17.217 20.322,21.094C20.322,21.341 20.348,21.582 20.397,21.815L20.397,38.672C20.397,39.802 20.457,40.918 20.574,42.017L20.37,41.936ZM69.615,112.969L34.459,112.969L34.459,105.938L69.615,105.938L69.615,112.969ZM66.1,91.875C68.038,91.875 69.615,93.452 69.615,95.391L69.615,98.906L34.459,98.906L34.459,95.391C34.459,93.452 36.036,91.875 37.975,91.875C39.882,91.875 61.627,91.875 66.1,91.875ZM45.602,84.844L47.928,70.046C49.274,70.221 50.645,70.312 52.037,70.312C53.43,70.312 54.801,70.221 56.146,70.046L58.473,84.844L45.602,84.844ZM76.647,38.672C76.647,52.241 65.607,63.281 52.037,63.281C38.468,63.281 27.428,52.241 27.428,38.672L27.428,21.094L76.647,21.094L76.647,38.672ZM76.647,14.063L27.428,14.063L27.428,7.031L76.647,7.031L76.647,14.063ZM83.629,41.936L83.505,41.986C83.618,40.897 83.678,39.791 83.678,38.672L83.678,21.094C83.678,17.217 86.832,14.063 90.709,14.063C94.586,14.063 97.74,17.217 97.74,21.094C97.74,30.326 92.202,38.507 83.629,41.936Z" fill="#242424"/>
</svg>
