<svg width="50" height="50" viewBox="0 0 50 50" fill="none" xmlns="http://www.w3.org/2000/svg" xmlns:xlink="http://www.w3.org/1999/xlink">
<path d="M45.584,48.413C46.365,49.195 47.631,49.196 48.413,48.416C49.195,47.635 49.196,46.369 48.415,45.587L45.584,48.413ZM37.948,35.101C37.168,34.319 35.901,34.318 35.12,35.099C34.338,35.879 34.337,37.145 35.117,37.927L37.948,35.101ZM2.667,22.5L0.667,22.5L2.667,22.5ZM22.5,2.667L22.5,0.667L22.5,2.667ZM48.415,45.587L37.948,35.101L35.117,37.927L45.584,48.413L48.415,45.587ZM40.333,22.5C40.333,27.23 38.454,31.766 35.11,35.11L37.938,37.939C42.033,33.844 44.333,28.291 44.333,22.5L40.333,22.5ZM35.11,35.11C31.766,38.455 27.23,40.333 22.5,40.333L22.5,44.333C28.29,44.333 33.844,42.033 37.938,37.939L35.11,35.11ZM22.5,40.333C17.77,40.333 13.234,38.455 9.89,35.11L7.062,37.939C11.156,42.033 16.709,44.333 22.5,44.333L22.5,40.333ZM9.89,35.11C6.546,31.766 4.667,27.23 4.667,22.5L0.667,22.5C0.667,28.291 2.967,33.844 7.062,37.939L9.89,35.11ZM4.667,22.5C4.667,17.77 6.546,13.234 9.89,9.89L7.062,7.062C2.967,11.156 0.667,16.71 0.667,22.5L4.667,22.5ZM9.89,9.89C13.234,6.546 17.77,4.667 22.5,4.667L22.5,0.667C16.709,0.667 11.156,2.967 7.062,7.062L9.89,9.89ZM22.5,4.667C27.23,4.667 31.766,6.546 35.11,9.89L37.938,7.062C33.844,2.967 28.29,0.667 22.5,0.667L22.5,4.667ZM35.11,9.89C38.454,13.234 40.333,17.77 40.333,22.5L44.333,22.5C44.333,16.71 42.033,11.156 37.938,7.062L35.11,9.89Z" fill="#000000"/>
</svg>
