<svg width="120" height="112" viewBox="0 0 120 112" fill="none" xmlns="http://www.w3.org/2000/svg" xmlns:xlink="http://www.w3.org/1999/xlink">
<path d="M110.029,58.204L110.029,3.56C110.029,1.61 108.449,0.03 106.499,0.03L11.924,0.03C9.974,0.03 8.394,1.61 8.394,3.56L8.394,62.56C6.691,62.808 5.026,63.469 3.553,64.563C-1.089,67.855 -2.187,75.222 1.701,79.766L17.601,99.041C27.443,110.56 37.898,111.971 53.441,111.971C66.779,111.971 72.742,112.03 84.366,109.381L95.685,106.674C97.52,109.237 100.434,110.897 103.71,110.897L109.286,110.897C114.826,110.897 119.333,106.149 119.333,100.313L119.333,68.757C119.333,63.184 115.223,58.607 110.029,58.204ZM94.163,65.466L89.459,63.077C81.726,59.173 72.785,59.029 64.93,62.681C62.786,63.524 58.112,66.352 55.687,66.257L39.367,66.257C33.953,66.257 29.549,70.662 29.549,76.075L29.549,78.65C29.518,78.618 29.486,78.587 29.457,78.555L17.802,65.904C17.097,65.139 16.304,64.498 15.454,63.984L15.454,28.962L44.341,28.962L44.341,41.902C44.341,43.852 45.922,45.432 47.871,45.432L70.146,45.432C72.095,45.432 73.676,43.852 73.676,41.902L73.676,28.962L102.969,28.962L102.969,58.204C98.845,58.523 95.406,61.473 94.163,65.466L94.163,65.466ZM51.401,28.962L66.616,28.962L66.616,38.372L51.401,38.372L51.401,28.962ZM102.969,21.902L73.676,21.902L73.676,7.09L102.969,7.09L102.969,21.902L102.969,21.902ZM66.616,7.09L66.616,21.903L51.401,21.903L51.401,7.09L66.616,7.09ZM44.341,7.09L44.341,21.903L15.453,21.903L15.453,7.09L44.341,7.09ZM82.728,102.514C71.99,104.973 65.522,104.874 53.568,104.874C38.977,104.874 31.927,104.638 23.048,94.548L7.148,75.273C4.382,71.672 9.392,67.42 12.61,70.687L24.264,83.338C27.344,86.588 31.221,88.377 35.998,88.482L68.311,88.482C70.261,88.482 71.841,86.902 71.841,84.952C71.841,83.003 70.261,81.422 68.311,81.422L36.608,81.422L36.608,76.075C36.608,74.554 37.845,73.317 39.366,73.317L55.687,73.317C59.364,73.58 64.671,70.51 67.906,69.082C73.789,66.347 80.486,66.455 86.27,69.375L93.663,73.13L93.663,99.898L82.728,102.514ZM112.273,100.312C112.273,102.256 110.933,103.837 109.286,103.837L103.71,103.837C102.063,103.837 100.723,102.256 100.723,100.312L100.723,68.757C100.723,66.814 102.063,65.232 103.71,65.232L109.286,65.232C110.933,65.232 112.273,66.813 112.273,68.757L112.273,100.312Z" fill="#242424"/>
</svg>
