<svg width="42" height="36" viewBox="0 0 42 36" fill="none" xmlns="http://www.w3.org/2000/svg" xmlns:xlink="http://www.w3.org/1999/xlink">
<path d="M11.476,0.524C10.924,0.524 10.476,0.972 10.476,1.524C10.476,2.076 10.924,2.524 11.476,2.524L11.476,0.524ZM40.048,7.286C40.6,7.286 41.048,6.838 41.048,6.286C41.048,5.734 40.6,5.286 40.048,5.286L40.048,7.286ZM13.857,5.286C13.305,5.286 12.857,5.734 12.857,6.286C12.857,6.838 13.305,7.286 13.857,7.286L13.857,5.286ZM9.095,7.286C9.648,7.286 10.095,6.838 10.095,6.286C10.095,5.734 9.648,5.286 9.095,5.286L9.095,7.286ZM1.952,5.286C1.4,5.286 0.952,5.734 0.952,6.286C0.952,6.838 1.4,7.286 1.952,7.286L1.952,5.286ZM40.048,31.095C40.6,31.095 41.048,30.648 41.048,30.095C41.048,29.543 40.6,29.095 40.048,29.095L40.048,31.095ZM13.857,29.095C13.305,29.095 12.857,29.543 12.857,30.095C12.857,30.648 13.305,31.095 13.857,31.095L13.857,29.095ZM9.095,31.095C9.648,31.095 10.095,30.648 10.095,30.095C10.095,29.543 9.648,29.095 9.095,29.095L9.095,31.095ZM1.952,29.095C1.4,29.095 0.952,29.543 0.952,30.095C0.952,30.648 1.4,31.095 1.952,31.095L1.952,29.095ZM30.524,12.429C29.972,12.429 29.524,12.876 29.524,13.429C29.524,13.981 29.972,14.429 30.524,14.429L30.524,12.429ZM28.143,19.191C28.695,19.191 29.143,18.743 29.143,18.191C29.143,17.638 28.695,17.191 28.143,17.191L28.143,19.191ZM1.952,17.191C1.4,17.191 0.952,17.638 0.952,18.191C0.952,18.743 1.4,19.191 1.952,19.191L1.952,17.191ZM40.048,19.191C40.6,19.191 41.048,18.743 41.048,18.191C41.048,17.638 40.6,17.191 40.048,17.191L40.048,19.191ZM32.905,17.191C32.352,17.191 31.905,17.638 31.905,18.191C31.905,18.743 32.352,19.191 32.905,19.191L32.905,17.191ZM11.476,2.524C11.842,2.524 12.194,2.669 12.453,2.928L13.867,1.514C13.233,0.88 12.373,0.524 11.476,0.524L11.476,2.524ZM12.453,2.928C12.712,3.187 12.857,3.539 12.857,3.905L14.857,3.905C14.857,3.008 14.501,2.148 13.867,1.514L12.453,2.928ZM12.857,3.905L12.857,8.667L14.857,8.667L14.857,3.905L12.857,3.905ZM12.857,8.667C12.857,9.033 12.712,9.384 12.453,9.643L13.867,11.057C14.501,10.423 14.857,9.563 14.857,8.667L12.857,8.667ZM12.453,9.643C12.194,9.902 11.842,10.048 11.476,10.048L11.476,12.048C12.373,12.048 13.233,11.692 13.867,11.057L12.453,9.643ZM11.476,10.048C11.11,10.048 10.759,9.902 10.5,9.643L9.086,11.057C9.72,11.692 10.58,12.048 11.476,12.048L11.476,10.048ZM10.5,9.643C10.241,9.384 10.095,9.033 10.095,8.667L8.095,8.667C8.095,9.563 8.451,10.423 9.086,11.057L10.5,9.643ZM10.095,8.667L10.095,3.905L8.095,3.905L8.095,8.667L10.095,8.667ZM10.095,3.905C10.095,3.539 10.241,3.187 10.5,2.928L9.086,1.514C8.451,2.148 8.095,3.008 8.095,3.905L10.095,3.905ZM10.5,2.928C10.759,2.669 11.11,2.524 11.476,2.524L11.476,0.524C10.58,0.524 9.72,0.88 9.086,1.514L10.5,2.928ZM40.048,5.286L13.857,5.286L13.857,7.286L40.048,7.286L40.048,5.286ZM9.095,5.286L1.952,5.286L1.952,7.286L9.095,7.286L9.095,5.286ZM11.476,26.334C11.842,26.334 12.194,26.479 12.453,26.738L13.867,25.324C13.233,24.69 12.373,24.334 11.476,24.334L11.476,26.334ZM12.453,26.738C12.712,26.997 12.857,27.348 12.857,27.714L14.857,27.714C14.857,26.818 14.501,25.958 13.867,25.324L12.453,26.738ZM12.857,27.714L12.857,32.476L14.857,32.476L14.857,27.714L12.857,27.714ZM12.857,32.476C12.857,32.843 12.712,33.194 12.453,33.453L13.867,34.867C14.501,34.233 14.857,33.373 14.857,32.476L12.857,32.476ZM12.453,33.453C12.194,33.712 11.842,33.857 11.476,33.857L11.476,35.857C12.373,35.857 13.233,35.501 13.867,34.867L12.453,33.453ZM11.476,33.857C11.11,33.857 10.759,33.712 10.5,33.453L9.086,34.867C9.72,35.501 10.58,35.857 11.476,35.857L11.476,33.857ZM10.5,33.453C10.241,33.194 10.095,32.843 10.095,32.476L8.095,32.476C8.095,33.373 8.451,34.233 9.086,34.867L10.5,33.453ZM10.095,32.476L10.095,27.714L8.095,27.714L8.095,32.476L10.095,32.476ZM10.095,27.714C10.095,27.348 10.241,26.997 10.5,26.738L9.086,25.324C8.451,25.958 8.095,26.818 8.095,27.714L10.095,27.714ZM10.5,26.738C10.759,26.479 11.11,26.334 11.476,26.334L11.476,24.334C10.58,24.334 9.72,24.69 9.086,25.324L10.5,26.738ZM40.048,29.095L13.857,29.095L13.857,31.095L40.048,31.095L40.048,29.095ZM9.095,29.095L1.952,29.095L1.952,31.095L9.095,31.095L9.095,29.095ZM30.524,14.429C30.89,14.429 31.241,14.574 31.5,14.833L32.915,13.419C32.28,12.785 31.421,12.429 30.524,12.429L30.524,14.429ZM31.5,14.833C31.759,15.092 31.905,15.443 31.905,15.81L33.905,15.81C33.905,14.913 33.549,14.053 32.915,13.419L31.5,14.833ZM31.905,15.81L31.905,20.572L33.905,20.572L33.905,15.81L31.905,15.81ZM31.905,20.572C31.905,20.938 31.759,21.289 31.5,21.548L32.915,22.962C33.549,22.328 33.905,21.468 33.905,20.572L31.905,20.572ZM31.5,21.548C31.241,21.807 30.89,21.953 30.524,21.953L30.524,23.953C31.421,23.953 32.28,23.596 32.915,22.962L31.5,21.548ZM30.524,21.953C30.158,21.953 29.806,21.807 29.547,21.548L28.133,22.962C28.767,23.596 29.627,23.953 30.524,23.953L30.524,21.953ZM29.547,21.548C29.288,21.289 29.143,20.938 29.143,20.572L27.143,20.572C27.143,21.468 27.499,22.328 28.133,22.962L29.547,21.548ZM29.143,20.572L29.143,15.81L27.143,15.81L27.143,20.572L29.143,20.572ZM29.143,15.81C29.143,15.443 29.288,15.092 29.547,14.833L28.133,13.419C27.499,14.053 27.143,14.913 27.143,15.81L29.143,15.81ZM29.547,14.833C29.806,14.574 30.158,14.429 30.524,14.429L30.524,12.429C29.627,12.429 28.767,12.785 28.133,13.419L29.547,14.833ZM28.143,17.191L1.952,17.191L1.952,19.191L28.143,19.191L28.143,17.191ZM40.048,17.191L32.905,17.191L32.905,19.191L40.048,19.191L40.048,17.191Z" fill="#000000"/>
</svg>
