<svg width="24" height="28" viewBox="0 0 24 28" fill="none" xmlns="http://www.w3.org/2000/svg" xmlns:xlink="http://www.w3.org/1999/xlink">
<path d="M20,19.333C18.949,19.333 18,19.747 17.288,20.409L7.88,14.933C7.947,14.627 8,14.32 8,14C8,13.68 7.947,13.373 7.88,13.067L17.28,7.587C18,8.253 18.947,8.667 20,8.667C22.213,8.667 24,6.88 24,4.667C24,2.453 22.213,0.667 20,0.667C17.787,0.667 16,2.453 16,4.667C16,4.987 16.053,5.293 16.12,5.6L6.72,11.08C6,10.413 5.053,10 4,10C1.787,10 0,11.787 0,14C0,16.213 1.787,18 4,18C5.053,18 6,17.587 6.72,16.92L16.117,22.411C16.042,22.713 16.003,23.022 16,23.333C16,24.124 16.235,24.898 16.674,25.556C17.114,26.213 17.738,26.726 18.469,27.029C19.2,27.332 20.004,27.411 20.78,27.256C21.556,27.102 22.269,26.721 22.828,26.162C23.388,25.602 23.769,24.89 23.923,24.114C24.077,23.338 23.998,22.533 23.696,21.803C23.393,21.072 22.88,20.447 22.222,20.007C21.564,19.568 20.791,19.333 20,19.333L20,19.333Z" fill="#FFFFFF"/>
</svg>
