<svg width="32" height="30" viewBox="0 0 32 30" fill="none" xmlns="http://www.w3.org/2000/svg" xmlns:xlink="http://www.w3.org/1999/xlink">
<path d="M15.999,26.072L15.129,27.648L15.999,28.129L16.87,27.648L15.999,26.072ZM15.999,5.451L14.587,6.567L15.999,8.353L17.411,6.567L15.999,5.451ZM16.87,24.497C10.376,20.907 6.856,17.354 5.203,14.343C3.574,11.377 3.744,8.944 4.604,7.258C6.393,3.747 11.472,2.626 14.587,6.567L17.411,4.334C12.528,-1.842 4.273,-0.021 1.396,5.623C-0.077,8.514 -0.074,12.213 2.047,16.076C4.143,19.894 8.29,23.868 15.129,27.648L16.87,24.497ZM17.411,6.567C20.528,2.626 25.607,3.747 27.396,7.258C28.256,8.944 28.426,11.377 26.797,14.343C25.143,17.354 21.623,20.907 15.129,24.497L16.87,27.648C23.709,23.868 27.856,19.894 29.953,16.076C32.074,12.213 32.077,8.514 30.604,5.623C27.727,-0.021 19.472,-1.842 14.588,4.334L17.411,6.567Z" fill="#FFFFFF"/>
</svg>
