<svg width="106" height="120" viewBox="0 0 106 120" fill="none" xmlns="http://www.w3.org/2000/svg" xmlns:xlink="http://www.w3.org/1999/xlink">
<path d="M101.387,47.926C100.599,21.365 78.748,0 52,0C25.252,0 3.401,21.365 2.612,47.926L-0.941,51.479L-0.941,75.58L2.588,79.109L2.588,95.529C2.588,105.13 10.399,112.941 20,112.941L24.372,112.941C25.829,117.049 29.752,120 34.353,120L41.412,120C46.016,120 49.941,117.045 51.396,112.933C51.597,112.936 51.8,112.941 52,112.941C69.044,112.941 83.305,100.796 86.584,84.706L95.815,84.706L104.941,75.58L104.941,51.479L101.387,47.926ZM52,7.059C72.948,7.059 90.391,22.348 93.761,42.353L86.584,42.353C83.305,26.263 69.044,14.118 52,14.118C34.956,14.118 20.695,26.263 17.415,42.353L10.238,42.353C13.609,22.348 31.052,7.059 52,7.059L52,7.059ZM79.342,42.353C67.933,42.319 59.874,43.014 53.23,33.301L50.003,28.585L47.231,33.581C43.191,40.861 37.75,42.353 30.824,42.353L24.658,42.353C27.8,30.189 38.868,21.176 52,21.176C65.132,21.176 76.2,30.189 79.342,42.353L79.342,42.353ZM16.706,77.647L11.109,77.647L6.118,72.656L6.118,54.403L11.109,49.412L16.706,49.412L16.706,77.647ZM9.647,95.529L9.647,84.706L17.409,84.706C18.737,91.288 21.916,97.33 26.626,102.183C25.639,103.238 24.864,104.493 24.372,105.882L20,105.882C14.291,105.882 9.647,101.238 9.647,95.529L9.647,95.529ZM41.412,112.941L34.353,112.941C32.407,112.941 30.824,111.358 30.824,109.412C30.824,107.466 32.407,105.882 34.353,105.882L41.412,105.882C43.358,105.882 44.941,107.466 44.941,109.412C44.941,111.358 43.358,112.941 41.412,112.941ZM80.235,77.647C80.235,93.216 67.569,105.882 52,105.882C51.798,105.882 51.594,105.878 51.39,105.874C49.931,101.77 46.01,98.824 41.412,98.824C34.165,98.84 34.28,98.787 33.377,98.87C27.249,93.5 23.765,85.85 23.765,77.647L23.765,49.412L30.824,49.412C37.07,49.412 44.677,48.382 50.565,41.215C58.335,49.357 67.829,49.412 76.352,49.412L80.235,49.412L80.235,77.647ZM97.882,72.656L92.891,77.647L87.294,77.647L87.294,49.412L92.891,49.412L97.882,54.403L97.882,72.656Z" fill="#242424"/>
</svg>
