<svg width="48" height="38" viewBox="0 0 48 38" fill="none" xmlns="http://www.w3.org/2000/svg" xmlns:xlink="http://www.w3.org/1999/xlink">
<path d="M42.667,18L42.667,6.333L47.333,6.333L47.333,20.333L42.667,20.333M42.667,29.667L47.333,29.667L47.333,25L42.667,25M19.333,20.333C25.563,20.333 38,23.46 38,29.667L38,36.667L0.667,36.667L0.667,29.667C0.667,23.46 13.103,20.333 19.333,20.333ZM19.333,-0.667C21.809,-0.667 24.183,0.317 25.933,2.067C27.683,3.817 28.667,6.191 28.667,8.667C28.667,11.142 27.683,13.516 25.933,15.266C24.183,17.017 21.809,18 19.333,18C16.858,18 14.484,17.017 12.734,15.266C10.983,13.516 10,11.142 10,8.667C10,6.191 10.983,3.817 12.734,2.067C14.484,0.317 16.858,-0.667 19.333,-0.667M19.333,24.767C12.403,24.767 5.1,28.173 5.1,29.667L5.1,32.233L33.567,32.233L33.567,29.667C33.567,28.173 26.263,24.767 19.333,24.767M19.333,3.767C18.034,3.767 16.787,4.283 15.869,5.202C14.95,6.121 14.433,7.367 14.433,8.667C14.433,9.966 14.95,11.212 15.869,12.131C16.787,13.05 18.034,13.567 19.333,13.567C20.633,13.567 21.879,13.05 22.798,12.131C23.717,11.212 24.233,9.966 24.233,8.667C24.233,7.367 23.717,6.121 22.798,5.202C21.879,4.283 20.633,3.767 19.333,3.767L19.333,3.767Z" fill="#000000"/>
</svg>
