<svg width="50" height="44" viewBox="0 0 50 44" fill="none" xmlns="http://www.w3.org/2000/svg" xmlns:xlink="http://www.w3.org/1999/xlink">
<path d="M46.471,30.385L13.905,30.385L15.54,27.055L42.709,27.005C43.627,27.005 44.415,26.349 44.579,25.441L48.342,4.381C48.44,3.829 48.292,3.26 47.931,2.828C47.753,2.615 47.53,2.444 47.279,2.326C47.028,2.208 46.754,2.146 46.477,2.145L11.914,2.03L11.619,0.641C11.433,-0.245 10.634,-0.891 9.727,-0.891L1.277,-0.891C0.765,-0.891 0.274,-0.687 -0.088,-0.325C-0.45,0.037 -0.653,0.528 -0.653,1.04C-0.653,1.552 -0.45,2.043 -0.088,2.405C0.274,2.767 0.765,2.97 1.277,2.97L8.163,2.97L9.453,9.106L12.631,24.49L8.54,31.167C8.327,31.454 8.2,31.794 8.171,32.15C8.142,32.506 8.213,32.862 8.376,33.18C8.704,33.83 9.366,34.241 10.098,34.241L13.533,34.241C12.801,35.213 12.405,36.398 12.406,37.615C12.406,40.71 14.922,43.226 18.017,43.226C21.113,43.226 23.628,40.71 23.628,37.615C23.628,36.395 23.224,35.209 22.502,34.241L31.312,34.241C30.58,35.213 30.184,36.398 30.185,37.615C30.185,40.71 32.701,43.226 35.796,43.226C38.892,43.226 41.407,40.71 41.407,37.615C41.407,36.395 41.002,35.209 40.281,34.241L46.477,34.241C47.538,34.241 48.407,33.377 48.407,32.31C48.404,31.799 48.199,31.309 47.836,30.949C47.473,30.588 46.983,30.385 46.471,30.385L46.471,30.385ZM12.718,5.836L44.207,5.94L41.123,23.21L16.388,23.254L12.718,5.836ZM18.017,39.343C17.066,39.343 16.289,38.566 16.289,37.615C16.289,36.663 17.066,35.887 18.017,35.887C18.969,35.887 19.745,36.663 19.745,37.615C19.745,38.073 19.563,38.513 19.239,38.837C18.915,39.161 18.476,39.343 18.017,39.343L18.017,39.343ZM35.796,39.343C34.845,39.343 34.068,38.566 34.068,37.615C34.068,36.663 34.845,35.887 35.796,35.887C36.748,35.887 37.524,36.663 37.524,37.615C37.524,38.073 37.342,38.513 37.018,38.837C36.694,39.161 36.255,39.343 35.796,39.343L35.796,39.343Z" fill="#000000"/>
</svg>
