<svg width="122" height="118" viewBox="0 0 122 118" fill="none" xmlns="http://www.w3.org/2000/svg" xmlns:xlink="http://www.w3.org/1999/xlink">
<path d="M114.239,40.522C112.655,35.619 113.33,28.259 109.215,22.576C105.067,16.849 97.852,15.221 93.779,12.241C89.748,9.293 85.998,2.878 79.218,0.666C72.629,-1.485 65.891,1.433 60.667,1.433C55.443,1.433 48.706,-1.485 42.116,0.665C35.337,2.877 31.583,9.294 27.555,12.24C23.486,15.216 16.266,16.849 12.119,22.576C8.007,28.254 8.675,35.631 7.095,40.522C5.59,45.177 0.667,50.765 0.667,58C0.667,65.24 5.585,70.806 7.095,75.478C8.678,80.382 8.003,87.742 12.119,93.424C16.266,99.152 23.48,100.78 27.555,103.76C31.585,106.707 35.335,113.123 42.116,115.335C48.7,117.484 55.448,114.567 60.667,114.567C65.877,114.567 72.642,117.481 79.218,115.335C85.997,113.123 89.748,106.708 93.778,103.76C97.847,100.784 105.067,99.152 109.214,93.425C113.326,87.747 112.658,80.371 114.239,75.479C115.743,70.823 120.667,65.236 120.667,58C120.667,50.761 115.75,45.197 114.239,40.522L114.239,40.522ZM105.318,72.596C103.472,78.309 103.956,84.702 101.622,87.926C99.256,91.192 93.04,92.684 88.244,96.192C83.501,99.661 80.176,105.161 76.309,106.422C72.651,107.616 66.69,105.192 60.667,105.192C54.6,105.192 48.7,107.621 45.024,106.422C41.158,105.161 37.838,99.665 33.089,96.192C28.321,92.705 22.071,91.183 19.712,87.925C17.385,84.713 17.85,78.275 16.016,72.596C14.218,67.032 10.042,62.215 10.042,58C10.042,53.782 14.214,48.981 16.015,43.405C17.861,37.692 17.377,31.298 19.712,28.075C22.076,24.811 28.296,23.314 33.089,19.808C37.848,16.328 41.151,10.842 45.023,9.578C48.679,8.386 54.66,10.809 60.666,10.809C66.744,10.809 72.63,8.378 76.309,9.578C80.175,10.84 83.498,16.337 88.244,19.808C93.011,23.295 99.263,24.818 101.622,28.075C103.949,31.289 103.481,37.72 105.318,43.404L105.318,43.405C107.116,48.968 111.292,53.786 111.292,58C111.292,62.219 107.119,67.02 105.318,72.596L105.318,72.596ZM82.263,42.955C84.093,44.785 84.093,47.753 82.263,49.584L58.8,73.046C56.97,74.877 54.001,74.877 52.171,73.046L39.071,59.946C37.24,58.115 37.24,55.147 39.071,53.317C40.901,51.486 43.87,51.486 45.7,53.317L55.486,63.102L75.633,42.955C77.464,41.124 80.432,41.124 82.263,42.955L82.263,42.955Z" fill="#242424"/>
</svg>
