<svg width="52" height="48" viewBox="0 0 52 48" fill="none" xmlns="http://www.w3.org/2000/svg" xmlns:xlink="http://www.w3.org/1999/xlink">
<path d="M24.805,44.277L23.758,45.98L23.766,45.985L24.805,44.277ZM27.195,44.277L28.234,45.985L28.242,45.98L27.195,44.277ZM26,10L24.397,11.196C24.775,11.702 25.369,12 26,12C26.631,12 27.225,11.702 27.603,11.196L26,10ZM14.333,1C6.806,1 0.667,7.047 0.667,14.55L4.667,14.55C4.667,9.294 8.976,5 14.333,5L14.333,1ZM0.667,14.55C0.667,17.415 1.241,22.114 4.467,27.71C7.686,33.295 13.483,39.664 23.758,45.98L25.853,42.573C16.031,36.535 10.758,30.615 7.932,25.713C5.113,20.821 4.667,16.835 4.667,14.55L0.667,14.55ZM23.766,45.985C24.439,46.395 25.212,46.612 26,46.612L26,42.612C25.945,42.612 25.892,42.597 25.845,42.568L23.766,45.985ZM26,46.612C26.788,46.612 27.561,46.395 28.234,45.985L26.155,42.568C26.108,42.597 26.055,42.612 26,42.612L26,46.612ZM28.242,45.98C38.517,39.664 44.314,33.295 47.533,27.71C50.759,22.114 51.333,17.415 51.333,14.55L47.333,14.55C47.333,16.835 46.887,20.821 44.068,25.713C41.242,30.615 35.969,36.535 26.147,42.573L28.242,45.98ZM51.333,14.55C51.333,7.047 45.194,1 37.667,1L37.667,5C43.024,5 47.333,9.294 47.333,14.55L51.333,14.55ZM37.667,1C33.749,1 30.381,3.103 28.141,4.96C26.993,5.912 26.068,6.859 25.43,7.569C25.11,7.924 24.859,8.224 24.684,8.438C24.597,8.546 24.529,8.632 24.481,8.694C24.457,8.725 24.438,8.75 24.424,8.769C24.417,8.778 24.411,8.785 24.407,8.791C24.404,8.794 24.402,8.797 24.401,8.799C24.4,8.8 24.399,8.801 24.399,8.802C24.398,8.802 24.398,8.803 24.398,8.803C24.397,8.803 24.397,8.804 26,10C27.603,11.196 27.602,11.197 27.602,11.197C27.602,11.197 27.602,11.198 27.602,11.198C27.601,11.198 27.601,11.198 27.601,11.199C27.601,11.199 27.601,11.199 27.601,11.199C27.602,11.198 27.603,11.195 27.607,11.191C27.613,11.183 27.624,11.169 27.639,11.149C27.671,11.108 27.721,11.044 27.79,10.96C27.926,10.792 28.133,10.544 28.404,10.244C28.946,9.641 29.731,8.838 30.694,8.04C32.676,6.396 35.142,5 37.667,5L37.667,1ZM26,10C27.603,8.804 27.602,8.803 27.602,8.803C27.602,8.803 27.601,8.802 27.601,8.802C27.601,8.801 27.6,8.8 27.599,8.799C27.597,8.797 27.596,8.794 27.593,8.791C27.589,8.785 27.583,8.778 27.576,8.769C27.562,8.75 27.543,8.725 27.519,8.694C27.471,8.632 27.403,8.546 27.315,8.438C27.141,8.224 26.89,7.924 26.57,7.569C25.932,6.859 25.007,5.912 23.859,4.96C21.619,3.103 18.251,1 14.333,1L14.333,5C16.858,5 19.324,6.396 21.306,8.04C22.269,8.838 23.053,9.641 23.596,10.244C23.866,10.544 24.074,10.792 24.21,10.96C24.279,11.044 24.329,11.108 24.36,11.149C24.376,11.169 24.387,11.183 24.393,11.191C24.396,11.195 24.398,11.198 24.399,11.199C24.399,11.199 24.399,11.199 24.399,11.199C24.399,11.198 24.399,11.198 24.398,11.198C24.398,11.198 24.398,11.197 24.398,11.197C24.397,11.197 24.397,11.196 26,10Z" fill="#000000"/>
</svg>
